<svg id="visual" viewBox="0 0 960 540" width="960" height="540" xmlns="http://www.w3.org/2000/svg" xmlns:xlink="http://www.w3.org/1999/xlink" version="1.1"><path d="M0 98L87 125L175 136L262 120L349 87L436 82L524 114L611 109L698 136L785 55L873 120L960 141L960 0L873 0L785 0L698 0L611 0L524 0L436 0L349 0L262 0L175 0L87 0L0 0Z" fill="#00cc8e"></path><path d="M0 260L87 255L175 222L262 195L349 271L436 287L524 244L611 282L698 341L785 195L873 222L960 233L960 139L873 118L785 53L698 134L611 107L524 112L436 80L349 85L262 118L175 134L87 123L0 96Z" fill="#00b98a"></path><path d="M0 352L87 320L175 266L262 260L349 325L436 379L524 330L611 368L698 374L785 282L873 260L960 320L960 231L873 220L785 193L698 339L611 280L524 242L436 285L349 269L262 193L175 220L87 253L0 258Z" fill="#00a784"></path><path d="M0 401L87 379L175 320L262 368L349 368L436 476L524 401L611 444L698 449L785 390L873 374L960 379L960 318L873 258L785 280L698 372L611 366L524 328L436 377L349 323L262 258L175 264L87 318L0 350Z" fill="#00957c"></path><path d="M0 541L87 541L175 541L262 541L349 541L436 541L524 541L611 541L698 541L785 541L873 541L960 541L960 377L873 372L785 388L698 447L611 442L524 399L436 474L349 366L262 366L175 318L87 377L0 399Z" fill="#038373"></path></svg>