<svg id="visual" viewBox="0 0 675 900" width="675" height="900" xmlns="http://www.w3.org/2000/svg" xmlns:xlink="http://www.w3.org/1999/xlink" version="1.1"><g stroke-width="1" stroke-linejoin="bevel"><path d="M392 449L418 415L387 412Z" fill="#dd7292" stroke="#dd7292"></path><path d="M373 315L308 381L387 412Z" fill="#e487a1" stroke="#e487a1"></path><path d="M387 412L272 427L392 449Z" fill="#dd7292" stroke="#dd7292"></path><path d="M544 484L484 351L418 415Z" fill="#f4c3cf" stroke="#f4c3cf"></path><path d="M418 415L373 315L387 412Z" fill="#ce4376" stroke="#ce4376"></path><path d="M484 351L373 315L418 415Z" fill="#dd7292" stroke="#dd7292"></path><path d="M308 381L272 427L387 412Z" fill="#c62368" stroke="#c62368"></path><path d="M267 486L357 553L392 449Z" fill="#e487a1" stroke="#e487a1"></path><path d="M392 449L466 546L418 415Z" fill="#ce4376" stroke="#ce4376"></path><path d="M357 553L466 546L392 449Z" fill="#c62368" stroke="#c62368"></path><path d="M484 351L411 291L373 315Z" fill="#f0afbf" stroke="#f0afbf"></path><path d="M272 427L267 486L392 449Z" fill="#f9d7df" stroke="#f9d7df"></path><path d="M373 315L298 324L308 381Z" fill="#c62368" stroke="#c62368"></path><path d="M308 381L225 407L272 427Z" fill="#e487a1" stroke="#e487a1"></path><path d="M351 249L298 324L373 315Z" fill="#ea9bb0" stroke="#ea9bb0"></path><path d="M466 546L544 484L418 415Z" fill="#c62368" stroke="#c62368"></path><path d="M544 484L540 356L484 351Z" fill="#e487a1" stroke="#e487a1"></path><path d="M513 281L417 250L411 291Z" fill="#fcebef" stroke="#fcebef"></path><path d="M466 546L530 521L544 484Z" fill="#f9d7df" stroke="#f9d7df"></path><path d="M272 427L236 447L267 486Z" fill="#dd7292" stroke="#dd7292"></path><path d="M225 407L236 447L272 427Z" fill="#dd7292" stroke="#dd7292"></path><path d="M298 324L225 407L308 381Z" fill="#d65b84" stroke="#d65b84"></path><path d="M513 281L411 291L484 351Z" fill="#ffffff" stroke="#ffffff"></path><path d="M411 291L351 249L373 315Z" fill="#ce4376" stroke="#ce4376"></path><path d="M236 551L288 572L267 486Z" fill="#f9d7df" stroke="#f9d7df"></path><path d="M267 486L288 572L357 553Z" fill="#c62368" stroke="#c62368"></path><path d="M357 553L456 611L466 546Z" fill="#ffffff" stroke="#ffffff"></path><path d="M540 356L513 281L484 351Z" fill="#e487a1" stroke="#e487a1"></path><path d="M417 250L351 249L411 291Z" fill="#f0afbf" stroke="#f0afbf"></path><path d="M298 324L171 351L225 407Z" fill="#fcebef" stroke="#fcebef"></path><path d="M438 637L456 611L357 553Z" fill="#f9d7df" stroke="#f9d7df"></path><path d="M466 546L536 635L530 521Z" fill="#dd7292" stroke="#dd7292"></path><path d="M186 530L236 551L267 486Z" fill="#f0afbf" stroke="#f0afbf"></path><path d="M186 530L267 486L236 447Z" fill="#ea9bb0" stroke="#ea9bb0"></path><path d="M530 521L587 517L544 484Z" fill="#ce4376" stroke="#ce4376"></path><path d="M544 484L621 433L540 356Z" fill="#f0afbf" stroke="#f0afbf"></path><path d="M603 578L587 517L530 521Z" fill="#c62368" stroke="#c62368"></path><path d="M342 634L438 637L357 553Z" fill="#ea9bb0" stroke="#ea9bb0"></path><path d="M456 611L536 635L466 546Z" fill="#f9d7df" stroke="#f9d7df"></path><path d="M342 634L357 553L288 572Z" fill="#ce4376" stroke="#ce4376"></path><path d="M303 696L342 634L288 572Z" fill="#c62368" stroke="#c62368"></path><path d="M587 517L621 433L544 484Z" fill="#f4c3cf" stroke="#f4c3cf"></path><path d="M540 356L605 314L513 281Z" fill="#f0afbf" stroke="#f0afbf"></path><path d="M621 433L624 375L540 356Z" fill="#ce4376" stroke="#ce4376"></path><path d="M351 249L230 269L298 324Z" fill="#e487a1" stroke="#e487a1"></path><path d="M624 375L605 314L540 356Z" fill="#f0afbf" stroke="#f0afbf"></path><path d="M113 454L236 447L225 407Z" fill="#fcebef" stroke="#fcebef"></path><path d="M113 454L186 530L236 447Z" fill="#e487a1" stroke="#e487a1"></path><path d="M236 551L209 603L288 572Z" fill="#f9d7df" stroke="#f9d7df"></path><path d="M230 269L171 351L298 324Z" fill="#f9d7df" stroke="#f9d7df"></path><path d="M438 637L536 635L456 611Z" fill="#fcebef" stroke="#fcebef"></path><path d="M536 635L603 578L530 521Z" fill="#ea9bb0" stroke="#ea9bb0"></path><path d="M675 485L675 440L621 433Z" fill="#ffffff" stroke="#ffffff"></path><path d="M303 696L401 682L342 634Z" fill="#d65b84" stroke="#d65b84"></path><path d="M342 634L401 682L438 637Z" fill="#ffffff" stroke="#ffffff"></path><path d="M438 637L509 702L536 635Z" fill="#e487a1" stroke="#e487a1"></path><path d="M513 281L439 174L417 250Z" fill="#fcebef" stroke="#fcebef"></path><path d="M417 250L406 159L351 249Z" fill="#f0afbf" stroke="#f0afbf"></path><path d="M262 191L226 233L230 269Z" fill="#fcebef" stroke="#fcebef"></path><path d="M540 188L439 174L513 281Z" fill="#ea9bb0" stroke="#ea9bb0"></path><path d="M226 233L186 286L230 269Z" fill="#f0afbf" stroke="#f0afbf"></path><path d="M230 269L186 286L171 351Z" fill="#ce4376" stroke="#ce4376"></path><path d="M186 530L209 603L236 551Z" fill="#ffffff" stroke="#ffffff"></path><path d="M262 191L230 269L351 249Z" fill="#ea9bb0" stroke="#ea9bb0"></path><path d="M439 174L406 159L417 250Z" fill="#ea9bb0" stroke="#ea9bb0"></path><path d="M509 702L563 649L536 635Z" fill="#dd7292" stroke="#dd7292"></path><path d="M536 635L563 649L603 578Z" fill="#d65b84" stroke="#d65b84"></path><path d="M675 485L621 433L587 517Z" fill="#dd7292" stroke="#dd7292"></path><path d="M621 433L675 381L624 375Z" fill="#ce4376" stroke="#ce4376"></path><path d="M624 375L675 381L605 314Z" fill="#ce4376" stroke="#ce4376"></path><path d="M675 275L602 242L605 314Z" fill="#f0afbf" stroke="#f0afbf"></path><path d="M605 314L602 242L513 281Z" fill="#fcebef" stroke="#fcebef"></path><path d="M439 174L483 43L406 159Z" fill="#ea9bb0" stroke="#ea9bb0"></path><path d="M325 112L262 191L351 249Z" fill="#e487a1" stroke="#e487a1"></path><path d="M602 242L554 199L513 281Z" fill="#ea9bb0" stroke="#ea9bb0"></path><path d="M675 440L675 381L621 433Z" fill="#e487a1" stroke="#e487a1"></path><path d="M554 199L540 188L513 281Z" fill="#f4c3cf" stroke="#f4c3cf"></path><path d="M603 578L675 485L587 517Z" fill="#dd7292" stroke="#dd7292"></path><path d="M675 590L675 485L603 578Z" fill="#f0afbf" stroke="#f0afbf"></path><path d="M186 530L174 596L209 603Z" fill="#dd7292" stroke="#dd7292"></path><path d="M228 681L303 696L288 572Z" fill="#c62368" stroke="#c62368"></path><path d="M82 584L174 596L186 530Z" fill="#e487a1" stroke="#e487a1"></path><path d="M228 681L288 572L209 603Z" fill="#f9d7df" stroke="#f9d7df"></path><path d="M106 441L225 407L171 351Z" fill="#e487a1" stroke="#e487a1"></path><path d="M106 441L113 454L225 407Z" fill="#ce4376" stroke="#ce4376"></path><path d="M602 242L567 189L554 199Z" fill="#ce4376" stroke="#ce4376"></path><path d="M554 199L567 189L540 188Z" fill="#f9d7df" stroke="#f9d7df"></path><path d="M388 41L325 112L406 159Z" fill="#dd7292" stroke="#dd7292"></path><path d="M484 765L509 702L401 682Z" fill="#e487a1" stroke="#e487a1"></path><path d="M401 682L509 702L438 637Z" fill="#ce4376" stroke="#ce4376"></path><path d="M73 353L106 441L171 351Z" fill="#f9d7df" stroke="#f9d7df"></path><path d="M82 584L163 671L174 596Z" fill="#fcebef" stroke="#fcebef"></path><path d="M163 671L228 681L209 603Z" fill="#f4c3cf" stroke="#f4c3cf"></path><path d="M675 381L675 275L605 314Z" fill="#e487a1" stroke="#e487a1"></path><path d="M602 242L675 200L567 189Z" fill="#f0afbf" stroke="#f0afbf"></path><path d="M675 680L603 578L563 649Z" fill="#f9d7df" stroke="#f9d7df"></path><path d="M675 680L675 590L603 578Z" fill="#ce4376" stroke="#ce4376"></path><path d="M226 233L132 257L186 286Z" fill="#f9d7df" stroke="#f9d7df"></path><path d="M186 286L132 257L171 351Z" fill="#f9d7df" stroke="#f9d7df"></path><path d="M149 163L132 257L226 233Z" fill="#e487a1" stroke="#e487a1"></path><path d="M523 106L439 174L540 188Z" fill="#fcebef" stroke="#fcebef"></path><path d="M406 159L325 112L351 249Z" fill="#dd7292" stroke="#dd7292"></path><path d="M262 191L186 139L226 233Z" fill="#f9d7df" stroke="#f9d7df"></path><path d="M388 41L316 106L325 112Z" fill="#dd7292" stroke="#dd7292"></path><path d="M325 112L316 106L262 191Z" fill="#dd7292" stroke="#dd7292"></path><path d="M132 257L73 353L171 351Z" fill="#ffffff" stroke="#ffffff"></path><path d="M61 526L186 530L113 454Z" fill="#ce4376" stroke="#ce4376"></path><path d="M174 596L163 671L209 603Z" fill="#ea9bb0" stroke="#ea9bb0"></path><path d="M294 759L338 765L303 696Z" fill="#fcebef" stroke="#fcebef"></path><path d="M61 526L113 454L106 441Z" fill="#f4c3cf" stroke="#f4c3cf"></path><path d="M294 759L303 696L212 737Z" fill="#dd7292" stroke="#dd7292"></path><path d="M303 696L338 765L401 682Z" fill="#ea9bb0" stroke="#ea9bb0"></path><path d="M573 56L523 106L567 189Z" fill="#f9d7df" stroke="#f9d7df"></path><path d="M567 189L523 106L540 188Z" fill="#e487a1" stroke="#e487a1"></path><path d="M338 765L484 765L401 682Z" fill="#dd7292" stroke="#dd7292"></path><path d="M574 761L675 680L563 649Z" fill="#f4c3cf" stroke="#f4c3cf"></path><path d="M212 737L303 696L228 681Z" fill="#fcebef" stroke="#fcebef"></path><path d="M0 473L61 526L106 441Z" fill="#ffffff" stroke="#ffffff"></path><path d="M61 526L82 584L186 530Z" fill="#c62368" stroke="#c62368"></path><path d="M675 275L675 200L602 242Z" fill="#e487a1" stroke="#e487a1"></path><path d="M316 106L186 139L262 191Z" fill="#f0afbf" stroke="#f0afbf"></path><path d="M132 257L51 336L73 353Z" fill="#c62368" stroke="#c62368"></path><path d="M131 722L212 737L163 671Z" fill="#fcebef" stroke="#fcebef"></path><path d="M163 671L212 737L228 681Z" fill="#ffffff" stroke="#ffffff"></path><path d="M0 329L51 336L0 239Z" fill="#ea9bb0" stroke="#ea9bb0"></path><path d="M0 367L0 473L106 441Z" fill="#dd7292" stroke="#dd7292"></path><path d="M186 139L149 163L226 233Z" fill="#ea9bb0" stroke="#ea9bb0"></path><path d="M574 761L563 649L509 702Z" fill="#e487a1" stroke="#e487a1"></path><path d="M484 765L563 765L509 702Z" fill="#dd7292" stroke="#dd7292"></path><path d="M563 765L574 761L509 702Z" fill="#f0afbf" stroke="#f0afbf"></path><path d="M484 765L562 826L563 765Z" fill="#f0afbf" stroke="#f0afbf"></path><path d="M563 765L562 826L574 761Z" fill="#ea9bb0" stroke="#ea9bb0"></path><path d="M338 765L474 807L484 765Z" fill="#c62368" stroke="#c62368"></path><path d="M349 854L474 807L338 765Z" fill="#ffffff" stroke="#ffffff"></path><path d="M483 43L388 41L406 159Z" fill="#f0afbf" stroke="#f0afbf"></path><path d="M316 106L197 80L186 139Z" fill="#f4c3cf" stroke="#f4c3cf"></path><path d="M573 56L483 43L523 106Z" fill="#fcebef" stroke="#fcebef"></path><path d="M523 106L483 43L439 174Z" fill="#d65b84" stroke="#d65b84"></path><path d="M103 715L131 722L163 671Z" fill="#ea9bb0" stroke="#ea9bb0"></path><path d="M212 737L251 828L294 759Z" fill="#f9d7df" stroke="#f9d7df"></path><path d="M322 858L349 854L338 765Z" fill="#ce4376" stroke="#ce4376"></path><path d="M103 715L163 671L49 660Z" fill="#d65b84" stroke="#d65b84"></path><path d="M0 367L106 441L73 353Z" fill="#f9d7df" stroke="#f9d7df"></path><path d="M61 526L0 554L82 584Z" fill="#f9d7df" stroke="#f9d7df"></path><path d="M255 0L197 80L316 106Z" fill="#ea9bb0" stroke="#ea9bb0"></path><path d="M186 139L197 80L149 163Z" fill="#dd7292" stroke="#dd7292"></path><path d="M0 329L0 367L51 336Z" fill="#f4c3cf" stroke="#f4c3cf"></path><path d="M51 336L0 367L73 353Z" fill="#c62368" stroke="#c62368"></path><path d="M51 336L132 257L0 239Z" fill="#ea9bb0" stroke="#ea9bb0"></path><path d="M675 121L573 56L567 189Z" fill="#ffffff" stroke="#ffffff"></path><path d="M675 200L675 121L567 189Z" fill="#ea9bb0" stroke="#ea9bb0"></path><path d="M49 660L163 671L82 584Z" fill="#f4c3cf" stroke="#f4c3cf"></path><path d="M39 186L132 257L149 163Z" fill="#ce4376" stroke="#ce4376"></path><path d="M0 473L0 554L61 526Z" fill="#e487a1" stroke="#e487a1"></path><path d="M0 638L49 660L82 584Z" fill="#e487a1" stroke="#e487a1"></path><path d="M124 834L212 737L131 722Z" fill="#c62368" stroke="#c62368"></path><path d="M124 834L251 828L212 737Z" fill="#ea9bb0" stroke="#ea9bb0"></path><path d="M322 858L338 765L294 759Z" fill="#f9d7df" stroke="#f9d7df"></path><path d="M597 856L562 826L493 900Z" fill="#dd7292" stroke="#dd7292"></path><path d="M474 807L562 826L484 765Z" fill="#ffffff" stroke="#ffffff"></path><path d="M574 761L675 770L675 680Z" fill="#e487a1" stroke="#e487a1"></path><path d="M442 0L382 0L388 41Z" fill="#f0afbf" stroke="#f0afbf"></path><path d="M388 41L279 0L316 106Z" fill="#e487a1" stroke="#e487a1"></path><path d="M442 0L388 41L483 43Z" fill="#d65b84" stroke="#d65b84"></path><path d="M525 0L442 0L483 43Z" fill="#ffffff" stroke="#ffffff"></path><path d="M675 121L675 90L573 56Z" fill="#ce4376" stroke="#ce4376"></path><path d="M573 56L525 0L483 43Z" fill="#c62368" stroke="#c62368"></path><path d="M58 128L39 186L149 163Z" fill="#ce4376" stroke="#ce4376"></path><path d="M251 828L322 858L294 759Z" fill="#d65b84" stroke="#d65b84"></path><path d="M493 900L562 826L474 807Z" fill="#e487a1" stroke="#e487a1"></path><path d="M597 856L675 770L574 761Z" fill="#e487a1" stroke="#e487a1"></path><path d="M39 186L0 239L132 257Z" fill="#f4c3cf" stroke="#f4c3cf"></path><path d="M382 0L279 0L388 41Z" fill="#ce4376" stroke="#ce4376"></path><path d="M67 69L58 128L149 163Z" fill="#c62368" stroke="#c62368"></path><path d="M598 0L525 0L573 56Z" fill="#f4c3cf" stroke="#f4c3cf"></path><path d="M0 772L78 809L103 715Z" fill="#ea9bb0" stroke="#ea9bb0"></path><path d="M218 900L270 900L251 828Z" fill="#fcebef" stroke="#fcebef"></path><path d="M0 554L0 638L82 584Z" fill="#f0afbf" stroke="#f0afbf"></path><path d="M279 0L255 0L316 106Z" fill="#d65b84" stroke="#d65b84"></path><path d="M67 69L149 163L197 80Z" fill="#e487a1" stroke="#e487a1"></path><path d="M39 186L0 123L0 239Z" fill="#f9d7df" stroke="#f9d7df"></path><path d="M255 0L166 35L197 80Z" fill="#d65b84" stroke="#d65b84"></path><path d="M0 638L0 655L49 660Z" fill="#ffffff" stroke="#ffffff"></path><path d="M457 900L474 807L349 854Z" fill="#f4c3cf" stroke="#f4c3cf"></path><path d="M562 826L597 856L574 761Z" fill="#c62368" stroke="#c62368"></path><path d="M675 90L598 0L573 56Z" fill="#ffffff" stroke="#ffffff"></path><path d="M270 900L347 900L322 858Z" fill="#f0afbf" stroke="#f0afbf"></path><path d="M322 858L347 900L349 854Z" fill="#ce4376" stroke="#ce4376"></path><path d="M270 900L322 858L251 828Z" fill="#c62368" stroke="#c62368"></path><path d="M347 900L457 900L349 854Z" fill="#e487a1" stroke="#e487a1"></path><path d="M457 900L493 900L474 807Z" fill="#dd7292" stroke="#dd7292"></path><path d="M124 834L131 722L78 809Z" fill="#fcebef" stroke="#fcebef"></path><path d="M78 809L131 722L103 715Z" fill="#f0afbf" stroke="#f0afbf"></path><path d="M148 0L67 69L166 35Z" fill="#c62368" stroke="#c62368"></path><path d="M166 35L67 69L197 80Z" fill="#ffffff" stroke="#ffffff"></path><path d="M58 128L0 123L39 186Z" fill="#f4c3cf" stroke="#f4c3cf"></path><path d="M255 0L148 0L166 35Z" fill="#ce4376" stroke="#ce4376"></path><path d="M0 772L103 715L49 660Z" fill="#ea9bb0" stroke="#ea9bb0"></path><path d="M0 103L58 128L67 69Z" fill="#c62368" stroke="#c62368"></path><path d="M0 103L0 123L58 128Z" fill="#ce4376" stroke="#ce4376"></path><path d="M124 834L218 900L251 828Z" fill="#f4c3cf" stroke="#f4c3cf"></path><path d="M136 900L218 900L124 834Z" fill="#d65b84" stroke="#d65b84"></path><path d="M675 90L675 0L598 0Z" fill="#f4c3cf" stroke="#f4c3cf"></path><path d="M597 856L675 861L675 770Z" fill="#fcebef" stroke="#fcebef"></path><path d="M631 900L675 861L597 856Z" fill="#f9d7df" stroke="#f9d7df"></path><path d="M0 0L0 103L67 69Z" fill="#f9d7df" stroke="#f9d7df"></path><path d="M493 900L631 900L597 856Z" fill="#f0afbf" stroke="#f0afbf"></path><path d="M0 655L0 772L49 660Z" fill="#f4c3cf" stroke="#f4c3cf"></path><path d="M61 900L136 900L124 834Z" fill="#dd7292" stroke="#dd7292"></path><path d="M148 0L74 0L67 69Z" fill="#ea9bb0" stroke="#ea9bb0"></path><path d="M0 772L0 791L78 809Z" fill="#c62368" stroke="#c62368"></path><path d="M61 900L124 834L78 809Z" fill="#ea9bb0" stroke="#ea9bb0"></path><path d="M631 900L675 900L675 861Z" fill="#ea9bb0" stroke="#ea9bb0"></path><path d="M0 900L61 900L78 809Z" fill="#e487a1" stroke="#e487a1"></path><path d="M74 0L0 0L67 69Z" fill="#f4c3cf" stroke="#f4c3cf"></path><path d="M0 791L0 900L78 809Z" fill="#ffffff" stroke="#ffffff"></path></g></svg>